<?xml version="1.0" encoding="UTF-8" standalone="no"?>
<!-- Created with Inkscape (http://www.inkscape.org/) -->

<svg
   version="1.1"
   id="svg499"
   width="800"
   height="800"
   viewBox="0 0 800 800"
   sodipodi:docname="dharma-wheel-publicdomainvectors.org.svg"
   inkscape:version="1.2 (dc2aedaf03, 2022-05-15)"
   xmlns:inkscape="http://www.inkscape.org/namespaces/inkscape"
   xmlns:sodipodi="http://sodipodi.sourceforge.net/DTD/sodipodi-0.dtd"
   xmlns="http://www.w3.org/2000/svg"
   xmlns:svg="http://www.w3.org/2000/svg">
  <defs
     id="defs503">
    <clipPath
       clipPathUnits="userSpaceOnUse"
       id="clipPath515">
      <path
         d="M 0,600 H 600 V 0 H 0 Z"
         id="path513" />
    </clipPath>
  </defs>
  <sodipodi:namedview
     id="namedview501"
     pagecolor="#ffffff"
     bordercolor="#000000"
     borderopacity="0.25"
     inkscape:showpageshadow="2"
     inkscape:pageopacity="0.0"
     inkscape:pagecheckerboard="0"
     inkscape:deskcolor="#d1d1d1"
     showgrid="false"
     inkscape:zoom="1.04625"
     inkscape:cx="400"
     inkscape:cy="400.4779"
     inkscape:window-width="1920"
     inkscape:window-height="1017"
     inkscape:window-x="-8"
     inkscape:window-y="-8"
     inkscape:window-maximized="1"
     inkscape:current-layer="g507">
    <inkscape:page
       x="0"
       y="0"
       id="page505"
       width="800"
       height="800" />
  </sodipodi:namedview>
  <g
     id="g507"
     inkscape:groupmode="layer"
     inkscape:label="Page 1"
     transform="matrix(1.3333333,0,0,-1.3333333,0,800)">
    <g
       id="g509">
      <g
         id="g511"
         clip-path="url(#clipPath515)">
        <g
           id="g517"
           transform="translate(435.9102,305.4272)">
          <path
             d="m 0,0 -12.166,12.487 0.063,4.874 C -5.745,16.906 0.008,14.109 3.852,9.548 L 4.491,8.788 5.459,8.562 C 13.294,6.724 21.526,5.639 27.352,5.239 27.39,3.822 27.411,2.4 27.411,0.976 c 0,-0.447 -0.013,-0.887 -0.015,-1.331 z m 27.024,-9.951 c -5.827,-0.255 -14.018,-1.125 -21.84,-2.746 L 4.21,-12.9 3.55,-13.644 c -3.96,-4.461 -9.785,-7.125 -16.152,-7.4 l 0.064,4.877 L -0.051,-4 27.311,-4.355 c -0.063,-1.874 -0.159,-3.74 -0.287,-5.596 m -37.144,-90.711 c -3.501,3.975 -8.087,9.872 -12.062,16.092 0.324,7.809 -2.788,15.608 -8.63,21.541 -5.372,5.453 -12.311,8.623 -19.564,8.942 l -0.197,0.037 c -8.719,4.562 -18.155,12.082 -24.236,17.648 4.663,6.776 8.086,14.461 9.964,22.729 12.817,-0.76 27.759,-4.889 31.062,-5.84 5.211,-4.781 12.139,-7.457 19.602,-7.555 0.139,-0.002 0.277,-0.002 0.413,-0.002 8.173,0 15.789,3.141 21.107,8.688 6.881,1.367 13.923,2.144 19.153,2.408 -3.471,-32.115 -16.679,-61.35 -36.612,-84.688 m -7.853,-8.541 -19.704,20.008 0.134,17.434 3.473,3.42 c 4.2,-4.795 6.322,-10.83 5.845,-16.774 l -0.08,-0.992 0.53,-0.844 c 4.432,-7.064 9.739,-13.855 13.645,-18.228 -1.258,-1.363 -2.538,-2.705 -3.843,-4.024 m -6.93,-6.589 c -4.314,3.974 -11.026,9.384 -18.022,13.925 l -0.834,0.541 -0.992,-0.064 c -5.95,-0.393 -11.952,1.828 -16.682,6.102 l 3.473,3.419 17.435,-0.134 19.705,-20.008 c -1.338,-1.285 -2.701,-2.543 -4.083,-3.781 m -89.569,-39.237 c 0.284,5.301 1.158,12.817 2.708,20.123 5.71,5.336 8.965,13.077 8.965,21.405 0,7.525 -2.632,14.547 -7.423,19.836 l -0.092,0.232 c -2.472,9.828 -4.44,21.57 -5.073,29.785 8.202,1.764 15.843,5.049 22.612,9.553 5.373,-6.213 12.824,-16.215 17.337,-25.1 0.34,-7.025 3.467,-14.013 8.643,-19.269 5.844,-5.934 13.597,-9.166 21.404,-8.961 6.162,-4.071 11.993,-8.75 15.915,-12.313 -23.547,-19.508 -52.878,-32.263 -84.996,-35.291 m -1.98,23.973 -0.753,-0.65 -0.215,-0.971 c -1.823,-8.256 -2.809,-16.944 -3.078,-22.805 -1.842,-0.103 -3.691,-0.174 -5.551,-0.211 v 28.364 l 12.328,12.328 h 4.874 c -0.371,-6.364 -3.094,-12.153 -7.605,-16.055 m -21.768,17.555 10.171,10.172 10.172,-10.172 -10.172,-10.172 z m 8.171,-42.225 c -1.855,0.01 -3.704,0.055 -5.545,0.127 -0.261,5.861 -1.249,14.609 -3.086,22.922 l -0.215,0.971 -0.751,0.65 c -4.51,3.904 -7.233,9.691 -7.605,16.055 h 4.874 l 12.328,-12.328 z m -100.053,36.816 c 3.991,3.514 10.036,8.194 16.407,12.229 7.817,-0.357 15.618,2.725 21.575,8.545 5.293,5.17 8.458,11.814 8.978,18.803 l 0.409,0.615 c 4.587,8.828 11.667,18.092 17.39,24.316 7.337,-4.791 15.676,-8.16 24.633,-9.726 -0.565,-8.194 -2.263,-20.256 -5.227,-29.58 -4.687,-5.245 -7.362,-12.416 -7.362,-19.793 0,-8.327 3.255,-16.067 8.963,-21.403 1.573,-7.412 2.451,-15.039 2.723,-20.349 -33.553,2.621 -64.166,15.859 -88.489,36.343 m -8.584,7.786 20.428,19.955 17.435,-0.203 3.405,-3.485 c -4.812,-4.183 -10.855,-6.281 -16.799,-5.779 l -0.991,0.084 -0.845,-0.526 c -7.257,-4.511 -14.231,-9.943 -18.604,-13.857 -1.367,1.244 -2.706,2.52 -4.029,3.811 m -6.626,6.855 c 4.02,4.27 9.675,11.18 14.403,18.4 l 0.545,0.832 -0.06,0.993 c -0.362,5.953 1.877,11.945 6.169,16.658 l 3.405,-3.486 -0.203,-17.436 -20.46,-19.986 c -1.287,1.322 -2.559,2.66 -3.799,4.025 m -40.163,92.35 c 5.165,-0.422 11.977,-1.36 18.613,-2.858 5.261,-5.781 12.959,-9.135 21.286,-9.244 0.169,0 0.335,-0.002 0.503,-0.002 7.713,0 14.172,2.344 19.166,6.942 l 0.168,0.15 c 10.124,3.082 23.468,4.639 31.614,4.947 1.811,-9.076 5.492,-17.48 10.614,-24.81 -6.319,-5.457 -15.903,-12.293 -24.593,-16.653 -7.027,-0.312 -14.027,-3.41 -19.305,-8.566 -5.956,-5.818 -9.219,-13.555 -9.047,-21.367 -4.268,-6.403 -9.191,-12.442 -12.816,-16.342 -20.315,24.164 -33.48,54.527 -36.203,87.803 m -0.519,11.677 26.894,-0.351 12.166,-12.486 -0.063,-4.874 c -6.358,0.454 -12.111,3.25 -15.954,7.813 l -0.64,0.762 -0.969,0.228 c -7.567,1.774 -15.506,2.844 -21.291,3.275 -0.081,1.869 -0.128,3.747 -0.143,5.633 m 0.211,9.616 c 5.807,0.272 13.828,1.143 21.501,2.734 l 0.974,0.202 0.66,0.744 c 3.959,4.459 9.794,7.111 16.15,7.395 l -0.063,-4.875 -12.487,-12.167 -26.926,0.35 c 0.033,1.881 0.092,3.754 0.191,5.617 m 41.849,-22.493 12.488,12.168 36.098,-0.47 c 0.056,-1.545 0.152,-3.079 0.312,-4.596 -8.871,-0.384 -22.554,-2.057 -33.112,-5.379 l -0.614,-0.193 -1.172,-1.045 c -3.708,-3.412 -8.337,-5.16 -14.063,-5.352 z m 0.373,28.655 0.063,4.852 c 5.559,-0.41 10.82,-2.656 14.612,-6.322 l 0.48,-0.463 0.632,-0.217 c 10.366,-3.553 23.824,-5.571 32.666,-6.205 -0.142,-1.518 -0.223,-3.055 -0.26,-4.6 l -36.027,0.467 z m 8.484,-14.439 -10.303,-10.04 -10.038,10.302 10.303,10.039 z M -248.5,102.586 c 3.434,-3.96 7.79,-9.609 11.585,-15.55 -0.322,-7.808 2.79,-15.606 8.633,-21.539 5.176,-5.257 12.115,-8.49 19.135,-8.937 9.084,-4.79 19.286,-12.706 25.363,-18.201 -5.13,-7.452 -8.761,-16.002 -10.484,-25.22 -8.159,0.558 -21.105,2.446 -30.954,5.719 -5.185,4.754 -12.321,7.522 -19.697,7.618 -8.338,0.135 -16.108,-3.044 -21.518,-8.684 -6.766,-1.345 -13.703,-2.104 -18.901,-2.386 3.036,33.094 16.4,63.239 36.838,87.18 m 7.88,8.573 19.2,-19.495 -0.133,-17.435 -3.473,-3.419 c -4.2,4.794 -6.322,10.827 -5.846,16.773 l 0.08,0.99 -0.529,0.844 c -4.254,6.779 -9.314,13.31 -13.167,17.69 1.266,1.373 2.554,2.726 3.868,4.052 m 6.96,6.613 c 4.321,-3.92 10.772,-9.08 17.486,-13.436 l 0.834,-0.542 0.993,0.064 c 5.949,0.38 11.953,-1.829 16.683,-6.102 l -3.472,-3.419 -17.434,0.132 -19.201,19.498 c 1.347,1.293 2.719,2.559 4.111,3.805 m 91.959,39.423 c -0.346,-5.195 -1.201,-12.126 -2.635,-18.88 -5.709,-5.336 -8.963,-13.076 -8.963,-21.402 0,-7.377 2.675,-14.55 7.362,-19.795 3.145,-9.89 4.862,-22.858 5.315,-31.023 -9.195,-1.594 -17.746,-5.085 -25.228,-10.069 -5.418,6.182 -13.201,16.539 -17.847,25.714 l -0.065,1.13 c -0.154,6.737 -2.71,12.141 -8.539,18.062 -5.845,5.934 -13.608,9.169 -21.407,8.961 -5.885,3.887 -11.469,8.333 -15.376,11.827 24.134,19.98 54.334,32.875 87.383,35.475 m 2.055,-22.73 0.751,0.651 0.215,0.971 c 1.69,7.647 2.66,15.661 3.009,21.459 1.866,0.075 3.739,0.122 5.622,0.13 v -26.935 l -12.328,-12.328 h -4.874 c 0.372,6.362 3.095,12.151 7.605,16.052 m 11.597,-7.382 10.172,-10.17 -10.172,-10.172 -10.171,10.172 z m 2,30.562 c 1.885,-0.04 3.762,-0.112 5.63,-0.217 0.355,-5.791 1.322,-13.748 2.999,-21.34 l 0.215,-0.971 0.753,-0.651 c 4.511,-3.901 7.234,-9.69 7.605,-16.053 h -4.874 l -12.328,12.327 z M -25.12,117.934 c -3.982,-3.445 -9.734,-7.858 -15.793,-11.694 -7.799,0.358 -15.615,-2.725 -21.573,-8.545 -5.277,-5.154 -8.537,-12.08 -9.015,-19.097 -4.725,-8.873 -12.453,-18.815 -17.955,-24.909 -7.579,5.743 -16.429,9.887 -26.047,11.937 0.414,8.157 2.149,21.487 5.37,31.58 l 0.751,0.861 c 4.614,4.906 6.583,10.545 6.583,18.846 0,8.327 -3.255,16.067 -8.965,21.404 -1.413,6.656 -2.261,13.481 -2.617,18.655 34.097,-3.236 65.04,-17.441 89.261,-39.038 m 8.385,-8.048 -19.613,-19.159 -17.432,0.204 -3.407,3.487 c 4.814,4.181 10.865,6.279 16.796,5.777 l 0.993,-0.084 0.843,0.525 c 6.86,4.265 13.467,9.351 17.864,13.2 1.341,-1.293 2.66,-2.61 3.956,-3.95 m 2.747,-2.908 c 1.266,-1.377 2.509,-2.777 3.725,-4.198 -3.928,-4.305 -9.077,-10.697 -13.433,-17.35 l -0.545,-0.832 0.06,-0.994 c 0.362,-5.953 -1.876,-11.946 -6.169,-16.659 l -3.406,3.488 0.204,17.433 z M -56.131,71.4 -81.521,46.597 c -1.07,1.118 -2.165,2.213 -3.309,3.255 5.934,6.591 14.014,17.059 18.949,26.542 l 0.309,0.591 0.027,0.667 c 0.221,5.27 2.483,10.523 6.227,14.654 l 3.391,-3.473 z m 4.014,1.125 0.168,14.383 14.385,-0.168 -0.169,-14.382 z m 16.216,-4.19 3.39,-3.472 c -4.21,-3.641 -9.496,-5.774 -14.741,-5.86 l -0.565,-0.009 -0.954,-0.4 c -10.102,-4.951 -20.755,-12.99 -27.203,-18.604 -0.914,1.245 -1.871,2.456 -2.868,3.634 l 25.506,24.916 z m -90.148,-1.332 v 36.08 l 12.328,12.33 h 4.894 c -0.208,-5.89 -1.687,-9.809 -4.958,-13.269 l -1.673,-1.916 -0.188,-0.577 c -3.462,-10.521 -5.314,-24.186 -5.813,-33.047 -1.517,0.18 -3.044,0.323 -4.59,0.399 m -14.385,32.596 -0.207,0.634 -0.459,0.486 c -3.615,3.841 -5.793,9.13 -6.129,14.694 h 4.852 l 12.328,-12.33 V 67.066 c -1.548,-0.018 -3.082,-0.093 -4.603,-0.216 -0.519,8.849 -2.364,22.335 -5.782,32.749 m -58.73,-24.834 0.134,17.434 3.486,3.433 c 3.988,-4.345 5.686,-8.178 5.784,-12.944 l 0.145,-2.522 0.271,-0.549 c 4.8,-9.692 12.806,-20.452 18.639,-27.159 -1.204,-0.97 -2.374,-1.979 -3.506,-3.031 z m -18.375,1.313 0.11,14.384 14.385,-0.11 -0.111,-14.386 z m 15.526,-4.12 24.956,-25.342 c -1.067,-1.115 -2.106,-2.261 -3.094,-3.448 -6.603,5.921 -17.214,14.071 -26.815,19.021 l -0.595,0.306 -0.667,0.026 c -5.27,0.196 -10.533,2.437 -14.677,6.166 l 3.457,3.403 z m 3.538,-143.799 24.606,24.037 c 1.168,-1.068 2.383,-2.084 3.625,-3.067 -5.891,-6.505 -13.002,-15.888 -17.703,-24.867 l -1.099,-1.486 -0.037,-0.922 c -0.21,-5.242 -2.464,-10.476 -6.204,-14.601 l -3.391,3.472 z m -4.013,-1.125 -0.168,-14.385 -14.384,0.168 0.168,14.385 z m -16.216,4.189 -3.391,3.471 c 4.217,3.646 9.522,5.785 14.794,5.883 l 0.669,0.011 0.599,0.295 c 9.148,4.493 19.359,11.721 26.178,17.559 1.001,-1.189 2.044,-2.336 3.125,-3.451 l -24.54,-23.971 z m 88.655,3.662 v -34.558 l -12.328,-12.328 h -4.852 c 0.336,5.564 2.515,10.853 6.129,14.691 l 0.459,0.488 0.207,0.635 c 3.237,9.858 5.061,22.469 5.687,31.295 1.552,-0.127 3.118,-0.205 4.698,-0.223 m 13.967,-29.988 0.718,-1.848 0.387,-0.41 c 3.603,-3.812 5.773,-9.084 6.11,-14.64 h -4.854 l -12.328,12.328 v 34.621 c 1.591,0.078 3.163,0.226 4.723,0.416 0.702,-8.613 2.692,-20.371 5.244,-30.467 m -13.217,35.969 c -1.752,0 -3.482,0.092 -5.197,0.238 0,0.043 0.002,0.092 0.002,0.133 h -1.414 c -30.045,3.303 -53.501,28.828 -53.501,59.739 0,33.145 26.966,60.11 60.11,60.11 33.145,0 60.111,-26.965 60.111,-60.11 0,-33.145 -26.966,-60.11 -60.111,-60.11 m 69.367,-13.164 -0.132,-17.434 -3.457,-3.404 c -3.666,4.201 -5.826,9.496 -5.944,14.771 l -0.014,0.668 -0.297,0.598 c -4.675,9.42 -12.372,19.846 -18.148,26.566 1.217,0.979 2.401,2 3.544,3.061 z m 18.374,-1.311 -0.109,-14.383 -14.384,0.108 0.11,14.385 z m -15.525,4.119 -24.452,24.83 c 1.068,1.118 2.108,2.262 3.097,3.452 6.13,-5.565 15.878,-13.426 25.51,-18.381 l 0.395,-0.203 1.284,-0.235 0.435,-0.047 c 5.24,-0.189 10.484,-2.423 14.625,-6.146 l -3.457,-3.404 z m 33.06,67.803 10.302,10.039 10.039,-10.303 -10.302,-10.039 z m -39.309,-1.49 35.626,-0.464 12.168,-12.487 -0.064,-4.852 c -5.552,0.41 -10.794,2.647 -14.56,6.297 l -0.523,0.508 -0.698,0.211 c -0.779,0.236 -17.466,5.23 -32.396,6.234 0.198,1.503 0.351,3.02 0.447,4.553 m -0.023,8.624 c 8.858,0.435 22.08,2.118 32.351,5.341 l 0.638,0.2 0.492,0.453 c 3.886,3.564 9.204,5.671 14.771,5.937 L -15.166,12.526 -27.653,0.359 -63.192,0.822 c 0,0.052 0.004,0.101 0.004,0.154 0,1.503 -0.069,2.992 -0.167,4.471 m 90.419,5.825 c -5.237,0.395 -12.365,1.348 -19.302,2.917 -5.263,5.777 -12.96,9.131 -21.285,9.24 -7.368,0.107 -14.582,-2.487 -19.889,-7.105 -9.739,-2.957 -22.42,-4.505 -30.611,-4.89 -1.355,8.483 -4.327,16.433 -8.593,23.523 6.212,5.491 16.72,13.39 26.11,18.065 7.108,0.285 13.942,3.306 19.31,8.549 5.957,5.821 9.218,13.558 9.048,21.37 3.854,5.786 8.252,11.279 11.74,15.163 C 12.758,73.906 24.936,43.939 27.064,11.272 m -156.363,152.415 c -89.719,0 -162.71,-72.993 -162.71,-162.711 0,-89.72 72.991,-162.71 162.71,-162.71 89.719,0 162.71,72.99 162.71,162.71 0,89.718 -72.991,162.711 -162.71,162.711 m 0,-331.434 c -93.034,0 -168.723,75.687 -168.723,168.723 0,93.033 75.689,168.722 168.723,168.722 93.034,0 168.724,-75.689 168.724,-168.722 0,-93.036 -75.69,-168.723 -168.724,-168.723 m 0,340.747 c -94.854,0 -172.024,-77.17 -172.024,-172.024 0,-94.854 77.17,-172.024 172.024,-172.024 94.855,0 172.026,77.17 172.026,172.024 C 42.727,95.83 -34.444,173 -129.299,173 m 0,-201.087 c -3.681,0 -7.203,0.695 -10.449,1.949 1.004,-0.092 1.962,-0.139 2.867,-0.139 7.526,0 11.719,2.987 13.848,5.33 4.951,5.448 4.775,13.086 2.516,17.88 -1.616,3.426 -4.328,5.576 -7.419,5.978 -1.543,1.916 -0.988,4.575 -0.641,5.719 1.177,3.867 5.004,8.037 10.041,8.529 6.291,0.614 12.765,-4.601 18.263,-14.68 0.024,-0.5 0.037,-1 0.037,-1.503 0,-16.026 -13.037,-29.063 -29.063,-29.063 m -29.063,29.063 c 0,8.31 3.512,15.81 9.122,21.113 -4.829,-10.377 -2.588,-17.027 -0.471,-20.371 3.264,-5.156 9.162,-7.526 14.154,-7.526 0.85,0 1.675,0.071 2.453,0.205 2.875,0.498 5.16,1.867 6.585,3.81 1.257,-0.865 2.034,-2.237 2.384,-2.98 1.764,-3.744 1.693,-9.578 -1.859,-13.484 -4.36,-4.801 -12.752,-5.322 -23.649,-1.496 -5.376,5.275 -8.719,12.617 -8.719,20.729 m 16.779,26.33 c 3.733,1.75 7.896,2.733 12.284,2.733 11.485,0 21.431,-6.696 26.149,-16.389 -6.342,7.013 -12.286,7.83 -15.775,7.491 -7.098,-0.694 -11.963,-6.368 -13.477,-11.347 -1.2,-3.936 -0.453,-7.605 1.948,-10.027 -1.047,-0.883 -2.4,-1.267 -3.332,-1.428 -4.052,-0.706 -9.665,0.968 -12.545,5.518 -3.542,5.594 -1.846,13.911 4.748,23.449 m 12.284,6.733 c -18.231,0 -33.063,-14.833 -33.063,-33.063 0,-18.231 14.832,-33.063 33.063,-33.063 18.231,0 33.063,14.832 33.063,33.063 0,18.23 -14.832,33.063 -33.063,33.063 m 0,-75.794 c -23.561,0 -42.729,19.168 -42.729,42.731 0,23.56 19.168,42.73 42.729,42.73 23.562,0 42.73,-19.17 42.73,-42.73 0,-23.563 -19.168,-42.731 -42.73,-42.731 m 0,89.461 c -25.766,0 -46.729,-20.964 -46.729,-46.73 0,-25.768 20.963,-46.731 46.729,-46.731 25.767,0 46.73,20.963 46.73,46.731 0,25.766 -20.963,46.73 -46.73,46.73 m -259.828,-46.607 10.115,-0.133 -0.109,-8.368 c -3.365,-2.435 -7.787,-3.808 -12.335,-3.72 -3.184,0.041 -6.164,0.744 -8.747,1.931 z M -403.498,13.614 -392.8,3.147 -403.768,-7.042 c -3.428,2.645 -5.554,6.336 -5.502,10.402 0.053,4.067 2.276,7.702 5.772,10.254 m 3.613,2.063 c 2.531,1.084 5.427,1.701 8.5,1.701 0.099,0 0.199,-0.002 0.299,-0.002 4.552,-0.06 8.935,-1.518 12.234,-4.039 l -0.108,-8.371 -10.115,0.133 z M 85.494,-1.111 76.417,8.206 c -0.061,1.75 -0.144,3.496 -0.248,5.236 10.473,-5.408 27.255,-8.404 37.817,-9.292 l -0.073,-5.63 z m -9.505,-13.209 9.452,9.209 28.419,-0.369 -0.074,-5.738 c -10.654,-0.619 -27.664,-3.211 -38.257,-8.414 0.177,1.763 0.329,3.535 0.46,5.312 m -4.48,1.217 L 61.47,-2.8 71.772,7.239 81.813,-3.063 Z m -27.889,-164.342 7.098,-7.207 0.245,-15.119 c -2.702,1.059 -5.255,2.748 -7.449,4.977 -3.195,3.242 -5.285,7.361 -5.858,11.476 z m -36.254,24.617 12.102,-0.093 19.942,-20.25 -4.012,-3.95 c -7.806,6.877 -21.225,16.665 -32.264,20.629 1.428,1.204 2.838,2.424 4.232,3.664 m 11.071,18.301 -0.11,-14.383 -14.385,0.108 0.11,14.385 z m 27.913,-31.81 -4.09,-4.026 -19.943,20.25 0.093,12.096 c 1.286,1.404 2.559,2.82 3.806,4.256 3.795,-11.096 13.378,-24.664 20.134,-32.576 m -22.756,312.824 -0.168,-14.383 -14.383,0.168 0.168,14.383 z m 21.551,23.848 -20.333,-19.861 -12.907,0.151 c -1.274,1.203 -2.565,2.389 -3.87,3.56 11.205,3.624 25.112,13.349 33.173,20.177 z m 11.526,11.262 -7.235,-7.07 -5.851,5.989 c 0.653,4.1 2.823,8.179 6.079,11.359 2.237,2.187 4.821,3.826 7.544,4.833 z M 30.836,130.174 c -1.111,1.375 -2.239,2.735 -3.385,4.081 l 0.156,13.357 20.331,19.862 4.011,-4.106 c -7.12,-8.018 -17.36,-21.989 -21.113,-33.194 m 43.747,48.744 c -1.053,-2.64 -2.726,-5.204 -5.004,-7.429 -3.256,-3.18 -7.384,-5.254 -11.499,-5.809 l -5.85,5.987 7.237,7.067 z m -2.087,15.343 c 2.842,-2.908 3.848,-7.049 3.188,-11.327 l -14.969,-0.184 0.531,14.946 c 0.244,0.033 0.487,0.077 0.733,0.1 4.202,0.359 7.937,-0.894 10.517,-3.535 m -202.545,66.517 v -10.115 h -8.37 c -2.477,3.332 -3.88,7.733 -3.88,12.285 0,3.185 0.665,6.175 1.819,8.773 z m 12.37,-10.115 h -8.37 v 10.115 l 10.432,10.943 c 1.154,-2.598 1.818,-5.588 1.818,-8.773 0,-4.552 -1.401,-8.952 -3.88,-12.285 m -8.37,-34.423 v 28.423 h 5.74 c 0.769,-10.814 3.661,-28.16 9.167,-38.641 -1.684,0.147 -3.375,0.274 -5.07,0.381 z m -13.671,-9.671 c -1.675,-0.084 -3.342,-0.19 -5.007,-0.314 5.431,10.504 8.286,27.673 9.048,38.408 h 5.63 v -28.422 z m 11.671,6.014 10.172,-10.17 -10.172,-10.172 -10.171,10.172 z m 0,68.365 c 4.067,0 7.732,-2.174 10.33,-5.636 l -10.33,-10.834 -10.329,10.834 c 2.599,3.462 6.263,5.636 10.329,5.636 m -150.151,-427.877 0.168,14.383 14.384,-0.168 -0.168,-14.383 z m -21.549,-23.846 20.331,19.86 11.467,-0.135 c 1.472,-1.344 2.964,-2.664 4.475,-3.965 -11.039,-3.84 -24.418,-13.221 -32.261,-19.867 z m -4.52,-21.541 c -2.278,-2.226 -4.88,-3.84 -7.544,-4.83 l 0.536,15.109 7.236,7.067 5.85,-5.986 c -0.652,-4.102 -2.822,-8.18 -6.078,-11.36 m -11.051,9.125 -0.532,-14.961 c -4.293,-0.56 -8.409,0.541 -11.251,3.451 -2.58,2.641 -3.748,6.405 -3.287,10.598 0.027,0.244 0.078,0.486 0.116,0.729 z m 8.485,11.084 -7.237,-7.07 -15.119,-0.182 c 1.07,2.697 2.77,5.242 5.007,7.428 3.256,3.182 7.384,5.254 11.499,5.812 z m 20.863,39.711 c 1.277,-1.498 2.571,-2.98 3.89,-4.441 l -0.131,-11.217 -20.33,-19.861 -3.935,4.027 c 6.764,7.617 16.346,20.605 20.506,31.492 m -26.693,316.71 7.099,-7.209 -5.964,-5.872 c -4.104,0.635 -8.192,2.789 -11.386,6.032 -2.234,2.268 -3.858,4.864 -4.859,7.525 z m -1.17,4.039 -14.962,0.471 c -0.578,4.29 0.507,8.41 3.404,11.264 2.347,2.312 5.506,3.432 8.896,3.432 0.796,0 1.606,-0.085 2.419,-0.208 z m 11.118,-8.44 -7.098,7.208 -0.245,15.099 c 2.644,-1.042 5.216,-2.69 7.45,-4.958 3.194,-3.242 5.284,-7.362 5.857,-11.475 z m 21.303,-27.331 -0.1,-13.159 c -1.17,-1.284 -2.323,-2.584 -3.46,-3.898 -3.601,11.236 -13.479,25.258 -20.394,33.355 l 4.012,3.952 z m 18.376,-1.312 -0.11,-14.386 -14.385,0.112 0.111,14.383 z m -2.352,4.018 -13.174,0.099 -19.943,20.25 4.09,4.03 c 7.995,-7.043 21.876,-17.142 33.059,-20.91 -1.359,-1.139 -2.703,-2.296 -4.032,-3.469 m -75.521,-152.815 10.304,10.038 10.038,-10.303 -10.304,-10.039 z m -32.049,2.416 0.073,5.629 c 10.749,0.623 27.966,3.257 38.536,8.553 -0.145,-1.656 -0.27,-3.32 -0.375,-4.988 l -9.815,-9.563 z m 28.367,-4.369 9.7,-9.957 c 0.085,-1.699 0.192,-3.391 0.319,-5.08 -10.411,5.643 -27.712,8.758 -38.513,9.667 l 0.074,5.739 z m 229.723,-196.873 -13.179,13.18 -13.328,-13.328 c -45.235,2.738 -86.414,20.738 -118.444,48.912 l 0.22,18.828 -19.158,0.224 c -27.991,32.26 -45.733,73.635 -48.117,119.014 l 11.963,11.657 -11.788,12.098 c 3.024,45.475 21.474,86.791 50.16,118.754 l 17.362,-0.132 0.133,17.374 c 32.244,28.065 73.633,45.879 119.042,48.312 l 11.955,-11.957 11.806,11.808 C -69.498,195.33 -27.137,175.967 5.202,145.94 L 4.996,128.319 22.17,128.118 C 49.392,95.74 66.442,54.548 68.362,9.501 L 55.813,-2.725 67.899,-15.13 C 64.328,-59.242 46.225,-99.306 18.396,-130.527 l -18.313,0.141 -0.141,-18.332 c -31.284,-27.047 -71.103,-44.469 -114.812,-47.635 m -11.179,-61.016 v 10.118 h 8.37 c 2.479,-3.334 3.88,-7.735 3.88,-12.286 0,-3.185 -0.665,-6.175 -1.818,-8.773 z m -12.37,10.118 h 8.37 v -10.116 l -10.431,-10.943 c -1.154,2.598 -1.819,5.588 -1.819,8.773 0,4.551 1.403,8.954 3.88,12.286 m 0.216,42.574 8.154,-8.152 v -28.422 h -5.63 c -0.727,10.234 -3.356,26.318 -8.305,36.9 1.92,-0.135 3.847,-0.242 5.781,-0.326 m 20.432,0.125 c 1.964,0.109 3.919,0.25 5.869,0.414 -5.015,-10.578 -7.674,-26.809 -8.407,-37.113 h -5.74 v 28.422 z m -10.278,-4.621 -10.171,10.172 10.171,10.172 10.172,-10.172 z m 0,-68.364 c -4.066,0 -7.73,2.174 -10.329,5.637 l 10.329,10.834 10.33,-10.834 c -2.598,-3.463 -6.263,-5.637 -10.33,-5.637 m 181.617,95.69 -7.097,7.207 5.964,5.875 c 4.103,-0.635 8.19,-2.789 11.384,-6.031 2.235,-2.27 3.859,-4.866 4.86,-7.526 z m 2.143,-19.104 c -0.244,0.024 -0.486,0.075 -0.73,0.112 l -0.242,14.953 14.962,-0.471 c 0.578,-4.289 -0.508,-8.41 -3.405,-11.264 -2.631,-2.593 -6.395,-3.769 -10.585,-3.33 m 89.276,187.186 c -0.191,-0.154 -0.399,-0.289 -0.597,-0.434 L 133.7,-3.738 144.658,6.44 c 0.195,-0.15 0.399,-0.29 0.586,-0.449 3.225,-2.719 4.974,-6.251 4.926,-9.943 -0.048,-3.694 -1.889,-7.178 -5.183,-9.813 m -25.127,8.206 10.116,-0.131 10.812,-10.581 c -2.671,-1.156 -5.678,-1.758 -8.802,-1.695 -4.55,0.058 -8.934,1.517 -12.234,4.037 z m 12.496,16.089 c 3.128,-0.041 6.115,-0.713 8.75,-1.929 l -11.08,-10.291 -10.113,0.131 0.108,8.371 c 3.365,2.433 7.801,3.779 12.335,3.718 m 18.045,1.577 h 10e-4 c -4.806,4.054 -11.178,6.334 -17.937,6.422 -7.01,0.091 -13.57,-2.151 -18.563,-6.352 -11.568,1.063 -28.163,5.031 -36.43,9.899 -3.753,37.027 -17.466,72.392 -39.701,102.396 2.608,9.315 12.172,24.458 19.732,33.111 6.437,0.435 12.701,3.333 17.667,8.184 10.255,10.017 11.622,25.307 3.049,34.085 -4.28,4.381 -10.283,6.481 -16.929,5.915 -6.265,-0.541 -12.379,-3.443 -17.217,-8.168 -5.006,-4.891 -8.058,-11.145 -8.607,-17.624 C 27.452,173.292 12.763,163.57 2.942,161.2 c -30.332,25.079 -66.831,40.939 -105.676,45.917 -5.059,8.59 -8.713,26.712 -9.557,37.474 4.188,4.909 6.492,11.414 6.492,18.357 0,14.337 -9.981,26 -22.25,26 -12.267,0 -22.25,-11.663 -22.25,-26 0,-6.998 2.341,-13.552 6.592,-18.471 -0.841,-10.502 -4.501,-28.326 -9.585,-37.031 -37.414,-4.321 -72.942,-18.805 -102.876,-41.942 -9.783,2.57 -24.475,12.767 -32.487,19.737 -0.459,6.435 -3.383,12.689 -8.255,17.634 -10.058,10.215 -25.355,11.523 -34.096,2.914 -8.742,-8.609 -7.669,-23.924 2.391,-34.138 4.909,-4.984 11.176,-8.012 17.659,-8.537 6.606,-7.866 16.679,-22.932 19.134,-32.724 -23.716,-29.723 -38.776,-65.208 -43.606,-102.751 -8.643,-4.966 -26.566,-8.392 -37.166,-9.099 -4.866,4.318 -11.389,6.743 -18.383,6.834 l -0.405,0.004 c -14.118,0 -25.73,-9.83 -25.887,-21.914 -0.159,-12.268 11.373,-22.399 25.724,-22.586 l 0.395,-0.002 c 6.782,0 13.172,2.22 18.028,6.255 10.293,-0.957 28.558,-4.968 37.362,-10.193 4.404,-38.047 19.279,-74.068 43.071,-104.293 -2.656,-8.805 -11.462,-21.781 -19.262,-30.66 -6.493,-0.395 -12.819,-3.303 -17.823,-8.193 -4.839,-4.727 -7.882,-10.77 -8.568,-17.02 -0.727,-6.619 1.232,-12.678 5.517,-17.064 3.769,-3.858 9.04,-5.981 14.842,-5.981 6.912,0 13.948,3 19.304,8.233 4.967,4.851 8.011,11.046 8.595,17.474 7.731,6.481 21.846,16.26 31.703,18.75 30.678,-24.377 67.306,-39.5 106.06,-43.789 5.013,-8.82 7.848,-25.541 8.616,-35.459 -4.253,-4.92 -6.594,-11.476 -6.594,-18.473 0,-14.337 9.983,-26 22.25,-26 12.269,0 22.25,11.663 22.25,26 0,6.942 -2.304,13.448 -6.493,18.358 0.771,10.135 3.665,27.162 8.816,35.908 36.916,4.598 71.959,19.113 101.457,42.025 9.766,-2.529 23.845,-12.654 31.567,-19.373 0.424,-6.492 3.355,-12.804 8.265,-17.789 4.748,-4.82 10.803,-7.838 17.057,-8.5 6.574,-0.691 12.724,1.338 17.04,5.588 8.74,8.608 7.668,23.922 -2.389,34.137 -4.875,4.947 -11.082,7.967 -17.509,8.523 -6.638,7.85 -16.602,22.141 -18.972,31.985 23.212,29.006 38.21,63.611 43.425,100.195 9.003,5.092 26.794,8.559 37.145,9.246 4.853,-4.254 11.329,-6.642 18.282,-6.732 l 0.397,-0.002 c 6.609,0 12.894,2.115 17.694,5.955 5.2,4.16 8.107,9.826 8.187,15.956 0.079,6.132 -2.68,11.873 -7.769,16.164"
             style="fill:#110f0d;fill-opacity:1;fill-rule:nonzero;stroke:none"
             id="path519" />
        </g>
        <g
           id="g521"
           transform="translate(435.2822,76.1523)">
          <path
             d="M 0,0 0.048,-0.023 Z"
             style="fill:#110f0d;fill-opacity:1;fill-rule:nonzero;stroke:none"
             id="path523" />
        </g>
      </g>
    </g>
  </g>
</svg>
